<svg xmlns="http://www.w3.org/2000/svg" viewBox="0 0 100 100">
  <circle cx="50" cy="50" r="50" fill="#1F4E5F"/>
  <path d="M35 65 C 25 65, 25 50, 35 40 C 35 30, 45 30, 45 40 C 55 30, 65 30, 65 40 C 75 50, 75 65, 65 65" fill="white"/>
  <circle cx="35" cy="35" r="8" fill="white"/>
  <circle cx="65" cy="35" r="8" fill="white"/>
  <path d="M50 40 Q 50 20, 35 20" stroke="white" stroke-width="3" fill="none"/>
  <path d="M50 40 Q 50 20, 65 20" stroke="white" stroke-width="3" fill="none"/>
  <path d="M35 20 Q 30 10, 40 10 Q 50 10, 50 25" fill="white"/>
  <path d="M65 20 Q 70 10, 60 10 Q 50 10, 50 25" fill="white"/>
</svg>
